ffmpeg started on 2025-06-19 at 09:47:57
Report written to "D:\Convert\FFMetrics\reports\psnr_report-6.txt"
Log level: 32
Command line:
ffmpeg -hide_banner -nostdin -i "G:\\\xc0\xed\xe8\xec\xe5\\[\xd2\xee\xef-4]\\Fate\\\xc4\xee\xef\xee\xeb\xed\xe5\xed\xe8\xe5 - \xcf\xee\xf1\xeb\xe5\xe4\xed\xe8\xe9 \xe2\xfb\xe7\xee\xe2 \xed\xe0 \xe1\xe8\xf1\\Fate_Extra_Last_Encore_[09]_[AniLibria_TV]_[HDTV-Rip_720p]_HEVC.mkv" -i "G:\\\xc0\xed\xe8\xec\xe5\\[\xd2\xee\xef-4]\\Fate\\\xc4\xee\xef\xee\xeb\xed\xe5\xed\xe8\xe5 - \xcf\xee\xf1\xeb\xe5\xe4\xed\xe8\xe9 \xe2\xfb\xe7\xee\xe2 \xed\xe0 \xe1\xe8\xf1\\Fate_Extra_Last_Encore_[09]_[AniLibria_TV]_[HDTV-Rip_720p].mkv" -lavfi "[0:v]settb=AVTB,setpts=PTS-STARTPTS,format=pix_fmts=yuv420p10,fps=24000/1001,scale=1280:720:flags=bicubic[main];[1:v]settb=AVTB,setpts=PTS-STARTPTS,format=pix_fmts=yuv420p,fps=24000/1001,scale=1280:720:flags=bicubic[ref];[main][ref]psnr=eof_action=endall:stats_file='D\\:/Convert/FFMetrics/logs/psnr_logfile-6.txt'" -f null -
Input #0, matroska,webm, from 'G:\Аниме\[Топ-4]\Fate\Дополнение - Последний вызов на бис\Fate_Extra_Last_Encore_[09]_[AniLibria_TV]_[HDTV-Rip_720p]_HEVC.mkv':
  Metadata:
    ENCODER         : Lavf61.7.100
  Duration: 00:25:00.14, start: -0.021000, bitrate: 1460 kb/s
  Stream #0:0(jpn): Video: hevc (Main 10), yuv420p10le(tv, bt709, progressive), 1280x720 [SAR 1:1 DAR 16:9], 23.81 fps, 23.81 tbr, 1k tbn (default)
      Metadata:
        ENCODER         : Lavc61.19.100 libx265
        BPS             : 1262416
        DURATION        : 00:25:00.030000000
        NUMBER_OF_FRAMES: 35963
        NUMBER_OF_BYTES : 236707862
        _STATISTICS_WRITING_APP: mkvpropedit v66.0.0 ('Josie') 64-bit
        _STATISTICS_WRITING_DATE_UTC: 2025-06-17 13:13:36
        _STATISTICS_TAGS: BPS DURATION NUMBER_OF_FRAMES NUMBER_OF_BYTES
  Stream #0:1(rus): Audio: aac (LC), 48000 Hz, stereo, fltp (default)
      Metadata:
        title           : Ados Amikiri Anzen Hekomi Silv
        ENCODER         : Lavc61.19.100 aac
        BPS             : 193445
        DURATION        : 00:25:00.117000000
        NUMBER_OF_FRAMES: 70319
        NUMBER_OF_BYTES : 36273819
        _STATISTICS_WRITING_APP: mkvpropedit v66.0.0 ('Josie') 64-bit
        _STATISTICS_WRITING_DATE_UTC: 2025-06-17 13:13:36
        _STATISTICS_TAGS: BPS DURATION NUMBER_OF_FRAMES NUMBER_OF_BYTES
  Stream #0:2(rus): Subtitle: ass (ssa) (default) (forced)
      Metadata:
        title           : Надписи
        BPS             : 26
        DURATION        : 00:21:25.030000000
        NUMBER_OF_FRAMES: 22
        NUMBER_OF_BYTES : 4218
        _STATISTICS_WRITING_APP: mkvpropedit v66.0.0 ('Josie') 64-bit
        _STATISTICS_WRITING_DATE_UTC: 2025-06-17 13:13:36
        _STATISTICS_TAGS: BPS DURATION NUMBER_OF_FRAMES NUMBER_OF_BYTES
  Stream #0:3(rus): Subtitle: ass (ssa)
      Metadata:
        title           : Полные
        BPS             : 145
        DURATION        : 00:24:27.420000000
        NUMBER_OF_FRAMES: 254
        NUMBER_OF_BYTES : 26659
        _STATISTICS_WRITING_APP: mkvpropedit v66.0.0 ('Josie') 64-bit
        _STATISTICS_WRITING_DATE_UTC: 2025-06-17 13:13:36
        _STATISTICS_TAGS: BPS DURATION NUMBER_OF_FRAMES NUMBER_OF_BYTES
Input #1, matroska,webm, from 'G:\Аниме\[Топ-4]\Fate\Дополнение - Последний вызов на бис\Fate_Extra_Last_Encore_[09]_[AniLibria_TV]_[HDTV-Rip_720p].mkv':
  Metadata:
    encoder         : libebml v1.4.2 + libmatroska v1.6.4
    creation_time   : 2024-12-27T09:59:14.000000Z
  Duration: 00:25:00.12, start: 0.000000, bitrate: 3486 kb/s
  Stream #1:0(jpn): Video: h264 (Main), yuv420p(tv, bt709, progressive), 1280x720, SAR 1:1 DAR 16:9, 23.81 fps, 23.81 tbr, 1k tbn (default)
      Metadata:
        BPS             : 3281544
        DURATION        : 00:25:00.022000000
        NUMBER_OF_FRAMES: 35963
        NUMBER_OF_BYTES : 615298628
        _STATISTICS_WRITING_APP: mkvmerge v66.0.0 ('Josie') 64-bit
        _STATISTICS_WRITING_DATE_UTC: 2024-12-27 09:59:14
        _STATISTICS_TAGS: BPS DURATION NUMBER_OF_FRAMES NUMBER_OF_BYTES
  Stream #1:1(rus): Audio: aac (LC), 48000 Hz, stereo, fltp (default)
      Metadata:
        title           : Ados Amikiri Anzen Hekomi Silv
        BPS             : 192091
        DURATION        : 00:25:00.117000000
        NUMBER_OF_FRAMES: 70318
        NUMBER_OF_BYTES : 36020016
        _STATISTICS_WRITING_APP: mkvmerge v66.0.0 ('Josie') 64-bit
        _STATISTICS_WRITING_DATE_UTC: 2024-12-27 09:59:14
        _STATISTICS_TAGS: BPS DURATION NUMBER_OF_FRAMES NUMBER_OF_BYTES
  Stream #1:2(rus): Subtitle: ass (ssa) (default) (forced)
      Metadata:
        title           : Надписи
        BPS             : 26
        DURATION        : 00:21:25.030000000
        NUMBER_OF_FRAMES: 22
        NUMBER_OF_BYTES : 4218
        _STATISTICS_WRITING_APP: mkvmerge v66.0.0 ('Josie') 64-bit
        _STATISTICS_WRITING_DATE_UTC: 2024-12-27 09:59:14
        _STATISTICS_TAGS: BPS DURATION NUMBER_OF_FRAMES NUMBER_OF_BYTES
  Stream #1:3(rus): Subtitle: ass (ssa)
      Metadata:
        title           : Полные
        BPS             : 145
        DURATION        : 00:24:27.420000000
        NUMBER_OF_FRAMES: 254
        NUMBER_OF_BYTES : 26659
        _STATISTICS_WRITING_APP: mkvmerge v66.0.0 ('Josie') 64-bit
        _STATISTICS_WRITING_DATE_UTC: 2024-12-27 09:59:14
        _STATISTICS_TAGS: BPS DURATION NUMBER_OF_FRAMES NUMBER_OF_BYTES
  Stream #1:4: Attachment: ttf
      Metadata:
        filename        : KozGoPr6N-Medium_0.otf
        mimetype        : application/x-truetype-font
  Stream #1:5: Attachment: ttf
      Metadata:
        filename        : 9511(1).ttf
        mimetype        : application/x-truetype-font
  Stream #1:6: Attachment: ttf
      Metadata:
        filename        : arx.ttf
        mimetype        : application/x-truetype-font
  Stream #1:7: Attachment: ttf
      Metadata:
        filename        : BwSurcoDEMO-Black.otf
        mimetype        : application/x-truetype-font
  Stream #1:8: Attachment: ttf
      Metadata:
        filename        : BwSurcoDEMO-BlackItalic.otf
        mimetype        : application/x-truetype-font
  Stream #1:9: Attachment: ttf
      Metadata:
        filename        : BwSurcoDEMO-Bold.otf
        mimetype        : application/x-truetype-font
  Stream #1:10: Attachment: ttf
      Metadata:
        filename        : BwSurcoDEMO-BoldItalic.otf
        mimetype        : application/x-truetype-font
  Stream #1:11: Attachment: ttf
      Metadata:
        filename        : BwSurcoDEMO-Book.otf
        mimetype        : application/x-truetype-font
  Stream #1:12: Attachment: ttf
      Metadata:
        filename        : BwSurcoDEMO-BookItalic.otf
        mimetype        : application/x-truetype-font
  Stream #1:13: Attachment: ttf
      Metadata:
        filename        : BwSurcoDEMO-Light.otf
        mimetype        : application/x-truetype-font
  Stream #1:14: Attachment: ttf
      Metadata:
        filename        : BwSurcoDEMO-LightItalic.otf
        mimetype        : application/x-truetype-font
  Stream #1:15: Attachment: ttf
      Metadata:
        filename        : BwSurcoDEMO-Medium.otf
        mimetype        : application/x-truetype-font
  Stream #1:16: Attachment: ttf
      Metadata:
        filename        : BwSurcoDEMO-MediumItalic.otf
        mimetype        : application/x-truetype-font
  Stream #1:17: Attachment: ttf
      Metadata:
        filename        : BwSurcoDEMO-Regular.otf
        mimetype        : application/x-truetype-font
  Stream #1:18: Attachment: ttf
      Metadata:
        filename        : BwSurcoDEMO-RegularItalic.otf
        mimetype        : application/x-truetype-font
Stream mapping:
  Stream #0:0 (hevc) -> settb:default
  Stream #1:0 (h264) -> settb:default
  psnr:default -> Stream #0:0 (wrapped_avframe)
  Stream #0:1 -> #0:1 (aac (native) -> pcm_s16le (native))
Output #0, null, to 'pipe:':
  Metadata:
    encoder         : Lavf61.7.100
  Stream #0:0: Video: wrapped_avframe, yuv420p10le(tv, bt709, progressive), 1280x720 [SAR 1:1 DAR 16:9], q=2-31, 200 kb/s, 23.98 fps, 23.98 tbn
      Metadata:
        encoder         : Lavc61.19.100 wrapped_avframe
  Stream #0:1(rus): Audio: pcm_s16le, 48000 Hz, stereo, s16, 1536 kb/s (default)
      Metadata:
        title           : Ados Amikiri Anzen Hekomi Silv
        _STATISTICS_TAGS: BPS DURATION NUMBER_OF_FRAMES NUMBER_OF_BYTES
        BPS             : 193445
        DURATION        : 00:25:00.117000000
        NUMBER_OF_FRAMES: 70319
        NUMBER_OF_BYTES : 36273819
        _STATISTICS_WRITING_APP: mkvpropedit v66.0.0 ('Josie') 64-bit
        _STATISTICS_WRITING_DATE_UTC: 2025-06-17 13:13:36
        encoder         : Lavc61.19.100 pcm_s16le
frame=  592 fps=0.0 q=-0.0 size=N/A time=00:00:24.69 bitrate=N/A speed=47.4x    frame= 1016 fps=988 q=-0.0 size=N/A time=00:00:42.37 bitrate=N/A speed=41.2x    frame= 1226 fps=791 q=-0.0 size=N/A time=00:00:51.13 bitrate=N/A speed=  33x    frame= 1240 fps=603 q=-0.0 size=N/A time=00:00:51.71 bitrate=N/A speed=25.2x    frame= 1509 fps=585 q=-0.0 size=N/A time=00:01:02.93 bitrate=N/A speed=24.4x    frame= 1680 fps=543 q=-0.0 size=N/A time=00:01:10.07 bitrate=N/A speed=22.7x    frame= 1810 fps=501 q=-0.0 size=N/A time=00:01:15.49 bitrate=N/A speed=20.9x    frame= 2014 fps=488 q=-0.0 size=N/A time=00:01:24.00 bitrate=N/A speed=20.4x    frame= 2075 fps=448 q=-0.0 size=N/A time=00:01:26.54 bitrate=N/A speed=18.7x    frame= 2215 fps=429 q=-0.0 size=N/A time=00:01:32.38 bitrate=N/A speed=17.9x    frame= 2362 fps=417 q=-0.0 size=N/A time=00:01:38.51 bitrate=N/A speed=17.4x    frame= 2393 fps=387 q=-0.0 size=N/A time=00:01:39.80 bitrate=N/A speed=16.1x    frame= 2577 fps=384 q=-0.0 size=N/A time=00:01:47.48 bitrate=N/A speed=  16x    frame= 2797 fps=388 q=-0.0 size=N/A time=00:01:56.65 bitrate=N/A speed=16.2x    frame= 2925 fps=378 q=-0.0 size=N/A time=00:02:01.99 bitrate=N/A speed=15.8x    frame= 3311 fps=402 q=-0.0 size=N/A time=00:02:18.09 bitrate=N/A speed=16.8x    frame= 3541 fps=404 q=-0.0 size=N/A time=00:02:27.68 bitrate=N/A speed=16.8x    frame= 3962 fps=427 q=-0.0 size=N/A time=00:02:45.24 bitrate=N/A speed=17.8x    frame= 4538 fps=463 q=-0.0 size=N/A time=00:03:09.27 bitrate=N/A speed=19.3x    frame= 4633 fps=450 q=-0.0 size=N/A time=00:03:13.23 bitrate=N/A speed=18.8x    frame= 5277 fps=487 q=-0.0 size=N/A time=00:03:40.09 bitrate=N/A speed=20.3x    frame= 5632 fps=497 q=-0.0 size=N/A time=00:03:54.90 bitrate=N/A speed=20.7x    frame= 6078 fps=512 q=-0.0 size=N/A time=00:04:13.50 bitrate=N/A speed=21.4x    frame= 6528 fps=528 q=-0.0 size=N/A time=00:04:32.27 bitrate=N/A speed=  22x    frame= 6608 fps=513 q=-0.0 size=N/A time=00:04:35.60 bitrate=N/A speed=21.4x    frame= 6842 fps=511 q=-0.0 size=N/A time=00:04:45.36 bitrate=N/A speed=21.3x    frame= 7138 fps=513 q=-0.0 size=N/A time=00:04:57.71 bitrate=N/A speed=21.4x    frame= 7255 fps=502 q=-0.0 size=N/A time=00:05:02.59 bitrate=N/A speed=  21x    frame= 7642 fps=511 q=-0.0 size=N/A time=00:05:18.73 bitrate=N/A speed=21.3x    frame= 7832 fps=506 q=-0.0 size=N/A time=00:05:26.65 bitrate=N/A speed=21.1x    frame= 8135 fps=509 q=-0.0 size=N/A time=00:05:39.29 bitrate=N/A speed=21.2x    frame= 8727 fps=529 q=-0.0 size=N/A time=00:06:03.98 bitrate=N/A speed=22.1x    frame= 8870 fps=522 q=-0.0 size=N/A time=00:06:09.95 bitrate=N/A speed=21.8x    frame= 9167 fps=523 q=-0.0 size=N/A time=00:06:22.34 bitrate=N/A speed=21.8x    frame= 9365 fps=519 q=-0.0 size=N/A time=00:06:30.59 bitrate=N/A speed=21.7x    frame= 9420 fps=507 q=-0.0 size=N/A time=00:06:32.89 bitrate=N/A speed=21.2x    frame= 9705 fps=509 q=-0.0 size=N/A time=00:06:44.77 bitrate=N/A speed=21.2x    frame= 9977 fps=509 q=-0.0 size=N/A time=00:06:56.12 bitrate=N/A speed=21.2x    frame=10303 fps=513 q=-0.0 size=N/A time=00:07:09.72 bitrate=N/A speed=21.4x    frame=10703 fps=519 q=-0.0 size=N/A time=00:07:26.40 bitrate=N/A speed=21.7x    frame=10749 fps=508 q=-0.0 size=N/A time=00:07:28.32 bitrate=N/A speed=21.2x    frame=11066 fps=511 q=-0.0 size=N/A time=00:07:41.54 bitrate=N/A speed=21.3x    frame=11344 fps=512 q=-0.0 size=N/A time=00:07:53.13 bitrate=N/A speed=21.3x    frame=11533 fps=508 q=-0.0 size=N/A time=00:08:01.02 bitrate=N/A speed=21.2x    frame=12142 fps=523 q=-0.0 size=N/A time=00:08:26.42 bitrate=N/A speed=21.8x    frame=12436 fps=524 q=-0.0 size=N/A time=00:08:38.68 bitrate=N/A speed=21.9x    frame=13007 fps=537 q=-0.0 size=N/A time=00:09:02.50 bitrate=N/A speed=22.4x    frame=13640 fps=551 q=-0.0 size=N/A time=00:09:28.90 bitrate=N/A speed=  23x    frame=13753 fps=544 q=-0.0 size=N/A time=00:09:33.61 bitrate=N/A speed=22.7x    frame=14383 fps=558 q=-0.0 size=N/A time=00:09:59.89 bitrate=N/A speed=23.3x    frame=14755 fps=561 q=-0.0 size=N/A time=00:10:15.40 bitrate=N/A speed=23.4x    frame=14990 fps=559 q=-0.0 size=N/A time=00:10:25.20 bitrate=N/A speed=23.3x    frame=15544 fps=569 q=-0.0 size=N/A time=00:10:48.31 bitrate=N/A speed=23.7x    frame=15745 fps=565 q=-0.0 size=N/A time=00:10:56.69 bitrate=N/A speed=23.6x    frame=16262 fps=573 q=-0.0 size=N/A time=00:11:18.26 bitrate=N/A speed=23.9x    frame=16909 fps=586 q=-0.0 size=N/A time=00:11:45.24 bitrate=N/A speed=24.4x    frame=16940 fps=576 q=-0.0 size=N/A time=00:11:46.53 bitrate=N/A speed=  24x    frame=17482 fps=585 q=-0.0 size=N/A time=00:12:09.14 bitrate=N/A speed=24.4x    frame=17908 fps=589 q=-0.0 size=N/A time=00:12:26.91 bitrate=N/A speed=24.6x    frame=18199 fps=588 q=-0.0 size=N/A time=00:12:39.04 bitrate=N/A speed=24.5x    frame=18849 fps=599 q=-0.0 size=N/A time=00:13:06.16 bitrate=N/A speed=  25x    frame=19011 fps=595 q=-0.0 size=N/A time=00:13:12.91 bitrate=N/A speed=24.8x    frame=19551 fps=602 q=-0.0 size=N/A time=00:13:35.43 bitrate=N/A speed=25.1x    frame=20153 fps=611 q=-0.0 size=N/A time=00:14:00.54 bitrate=N/A speed=25.5x    frame=20307 fps=606 q=-0.0 size=N/A time=00:14:06.97 bitrate=N/A speed=25.3x    frame=20927 fps=615 q=-0.0 size=N/A time=00:14:32.83 bitrate=N/A speed=25.7x    frame=21463 fps=621 q=-0.0 size=N/A time=00:14:55.18 bitrate=N/A speed=25.9x    frame=22004 fps=627 q=-0.0 size=N/A time=00:15:17.75 bitrate=N/A speed=26.2x    frame=22644 fps=637 q=-0.0 size=N/A time=00:15:44.44 bitrate=N/A speed=26.5x    frame=22829 fps=633 q=-0.0 size=N/A time=00:15:52.15 bitrate=N/A speed=26.4x    frame=23292 fps=636 q=-0.0 size=N/A time=00:16:11.47 bitrate=N/A speed=26.5x    frame=23691 fps=638 q=-0.0 size=N/A time=00:16:28.11 bitrate=N/A speed=26.6x    frame=23886 fps=635 q=-0.0 size=N/A time=00:16:36.24 bitrate=N/A speed=26.5x    frame=24282 fps=637 q=-0.0 size=N/A time=00:16:52.76 bitrate=N/A speed=26.5x    frame=24470 fps=633 q=-0.0 size=N/A time=00:17:00.60 bitrate=N/A speed=26.4x    frame=24710 fps=630 q=-0.0 size=N/A time=00:17:10.61 bitrate=N/A speed=26.3x    frame=25123 fps=633 q=-0.0 size=N/A time=00:17:27.83 bitrate=N/A speed=26.4x    frame=25167 fps=626 q=-0.0 size=N/A time=00:17:29.67 bitrate=N/A speed=26.1x    frame=25432 fps=624 q=-0.0 size=N/A time=00:17:40.72 bitrate=N/A speed=  26x    frame=25591 fps=620 q=-0.0 size=N/A time=00:17:47.35 bitrate=N/A speed=25.9x    frame=25701 fps=615 q=-0.0 size=N/A time=00:17:51.94 bitrate=N/A speed=25.7x    frame=26167 fps=619 q=-0.0 size=N/A time=00:18:11.38 bitrate=N/A speed=25.8x    frame=26348 fps=616 q=-0.0 size=N/A time=00:18:18.93 bitrate=N/A speed=25.7x    frame=26695 fps=616 q=-0.0 size=N/A time=00:18:33.40 bitrate=N/A speed=25.7x    frame=27101 fps=618 q=-0.0 size=N/A time=00:18:50.33 bitrate=N/A speed=25.8x    frame=27140 fps=612 q=-0.0 size=N/A time=00:18:51.96 bitrate=N/A speed=25.5x    frame=27545 fps=614 q=-0.0 size=N/A time=00:19:08.85 bitrate=N/A speed=25.6x    frame=27846 fps=614 q=-0.0 size=N/A time=00:19:21.41 bitrate=N/A speed=25.6x    frame=27967 fps=609 q=-0.0 size=N/A time=00:19:26.45 bitrate=N/A speed=25.4x    frame=28387 fps=612 q=-0.0 size=N/A time=00:19:43.97 bitrate=N/A speed=25.5x    frame=28521 fps=608 q=-0.0 size=N/A time=00:19:49.56 bitrate=N/A speed=25.4x    frame=28787 fps=607 q=-0.0 size=N/A time=00:20:00.65 bitrate=N/A speed=25.3x    frame=29148 fps=608 q=-0.0 size=N/A time=00:20:15.71 bitrate=N/A speed=25.4x    frame=29171 fps=602 q=-0.0 size=N/A time=00:20:16.67 bitrate=N/A speed=25.1x    frame=29487 fps=602 q=-0.0 size=N/A time=00:20:29.85 bitrate=N/A speed=25.1x    frame=29701 fps=600 q=-0.0 size=N/A time=00:20:38.77 bitrate=N/A speed=  25x    frame=29779 fps=595 q=-0.0 size=N/A time=00:20:42.03 bitrate=N/A speed=24.8x    frame=30116 fps=596 q=-0.0 size=N/A time=00:20:56.08 bitrate=N/A speed=24.9x    frame=30238 fps=592 q=-0.0 size=N/A time=00:21:01.17 bitrate=N/A speed=24.7x    frame=30439 fps=590 q=-0.0 size=N/A time=00:21:09.55 bitrate=N/A speed=24.6x    frame=30818 fps=592 q=-0.0 size=N/A time=00:21:25.36 bitrate=N/A speed=24.7x    frame=30930 fps=588 q=-0.0 size=N/A time=00:21:30.03 bitrate=N/A speed=24.5x    frame=31373 fps=591 q=-0.0 size=N/A time=00:21:48.51 bitrate=N/A speed=24.6x    frame=31597 fps=589 q=-0.0 size=N/A time=00:21:57.85 bitrate=N/A speed=24.6x    frame=31852 fps=588 q=-0.0 size=N/A time=00:22:08.49 bitrate=N/A speed=24.5x    frame=32099 fps=587 q=-0.0 size=N/A time=00:22:18.79 bitrate=N/A speed=24.5x    frame=32149 fps=583 q=-0.0 size=N/A time=00:22:20.88 bitrate=N/A speed=24.3x    frame=32407 fps=582 q=-0.0 size=N/A time=00:22:31.64 bitrate=N/A speed=24.3x    frame=32663 fps=581 q=-0.0 size=N/A time=00:22:42.31 bitrate=N/A speed=24.2x    frame=32810 fps=579 q=-0.0 size=N/A time=00:22:48.45 bitrate=N/A speed=24.1x    frame=33060 fps=578 q=-0.0 size=N/A time=00:22:58.87 bitrate=N/A speed=24.1x    frame=33195 fps=575 q=-0.0 size=N/A time=00:23:04.50 bitrate=N/A speed=  24x    frame=33457 fps=574 q=-0.0 size=N/A time=00:23:15.43 bitrate=N/A speed=  24x    frame=33864 fps=576 q=-0.0 size=N/A time=00:23:32.41 bitrate=N/A speed=  24x    frame=34027 fps=574 q=-0.0 size=N/A time=00:23:39.20 bitrate=N/A speed=23.9x    frame=34479 fps=576 q=-0.0 size=N/A time=00:23:58.06 bitrate=N/A speed=  24x    frame=34800 fps=577 q=-0.0 size=N/A time=00:24:11.45 bitrate=N/A speed=24.1x    frame=34966 fps=575 q=-0.0 size=N/A time=00:24:18.37 bitrate=N/A speed=  24x    frame=35387 fps=577 q=-0.0 size=N/A time=00:24:35.93 bitrate=N/A speed=24.1x    frame=35933 fps=581 q=-0.0 size=N/A time=00:24:58.70 bitrate=N/A speed=24.2x    [Parsed_psnr_10 @ 000001bfe5aaf380] PSNR y:30.243718 u:42.148562 v:41.144019 average:31.849178 min:3.191573 max:63.960355
[out#0/null @ 000001bfe5a46440] video:15454KiB audio:281276KiB subtitle:0KiB other streams:0KiB global headers:0KiB muxing overhead: unknown
frame=35965 fps=581 q=-0.0 Lsize=N/A time=00:25:00.04 bitrate=N/A speed=24.2x    
